<svg xmlns="http://www.w3.org/2000/svg" viewBox="0 0 166 37">
  <defs>
    <style>
      .cls-1 {
        fill: #961e29;
      }

      .cls-2 {
        fill: #fff;
      }
    </style>
  </defs>
  <title>1_LibreOffice_Text</title>
  <g id="doXigate_Arbeitsunterlagen" data-name="doXigate Arbeitsunterlagen">
    <g>
      <path class="cls-1" d="M53.008,20.047H43V3.242h3.785V16.977h6.223Z"/>
      <path class="cls-1" d="M56.781,6.148a2.163,2.163,0,0,1-1.535-.556,1.8,1.8,0,0,1-.6-1.365,1.733,1.733,0,0,1,.6-1.36,2.508,2.508,0,0,1,3.076,0,1.737,1.737,0,0,1,.592,1.36,1.783,1.783,0,0,1-.592,1.382A2.2,2.2,0,0,1,56.781,6.148Zm1.828,13.9h-3.7v-12h3.7Z"/>
      <path class="cls-1" d="M65.477,18.652H65.43v1.395h-3.7V2.281h3.7V9.852h.047a4.392,4.392,0,0,1,3.9-2.1,4.28,4.28,0,0,1,3.574,1.594,6.87,6.87,0,0,1,1.254,4.359,7.437,7.437,0,0,1-1.465,4.816,4.771,4.771,0,0,1-3.914,1.817A3.78,3.78,0,0,1,65.477,18.652Zm-.106-5.062v1.23a2.81,2.81,0,0,0,.668,1.922,2.173,2.173,0,0,0,1.711.762,2.269,2.269,0,0,0,1.963-.979,4.722,4.722,0,0,0,.7-2.771,3.763,3.763,0,0,0-.638-2.326,2.156,2.156,0,0,0-1.823-.838,2.352,2.352,0,0,0-1.845.832A3.157,3.157,0,0,0,65.371,13.59Z"/>
      <path class="cls-1" d="M84.438,11.387a3.217,3.217,0,0,0-1.559-.364,2.245,2.245,0,0,0-1.887.885,3.861,3.861,0,0,0-.679,2.408v5.731h-3.7v-12h3.7v2.226h.046a3.2,3.2,0,0,1,3.164-2.437,2.384,2.384,0,0,1,.915.141Z"/>
      <path class="cls-1" d="M96.848,15.1H89.02q.188,2.613,3.293,2.613a6.428,6.428,0,0,0,3.48-.938v2.672a9.139,9.139,0,0,1-4.324.891,6.087,6.087,0,0,1-4.512-1.611,6.092,6.092,0,0,1-1.6-4.495A6.422,6.422,0,0,1,87.086,9.5a5.778,5.778,0,0,1,4.266-1.746,5.24,5.24,0,0,1,4.06,1.559,6,6,0,0,1,1.436,4.23Zm-3.434-2.274q0-2.578-2.086-2.578a1.992,1.992,0,0,0-1.541.738A3.361,3.361,0,0,0,89,12.828Z"/>
      <path class="cls-1" d="M106.516,20.34a7.819,7.819,0,0,1-5.883-2.35,8.433,8.433,0,0,1-2.274-6.123,9.04,9.04,0,0,1,2.309-6.445,7.991,7.991,0,0,1,6.117-2.461A7.63,7.63,0,0,1,112.6,5.316a8.688,8.688,0,0,1,2.22,6.211,8.894,8.894,0,0,1-2.3,6.387A7.907,7.907,0,0,1,106.516,20.34Zm.164-14.121a3.81,3.81,0,0,0-3.164,1.494,6.224,6.224,0,0,0-1.172,3.955,6.111,6.111,0,0,0,1.172,3.949,4.044,4.044,0,0,0,6.175.041,6.045,6.045,0,0,0,1.149-3.92,6.555,6.555,0,0,0-1.113-4.066A3.63,3.63,0,0,0,106.68,6.219Z"/>
      <path class="cls-1" d="M125.078,5.117a3.746,3.746,0,0,0-1.371-.281q-1.78,0-1.781,1.934V8.047h2.742v2.73h-2.742v9.27h-3.692v-9.27h-2.015V8.047h2.015V6.559a4.322,4.322,0,0,1,1.336-3.3A5.1,5.1,0,0,1,123.2,2a6.389,6.389,0,0,1,1.875.234Z"/>
      <path class="cls-1" d="M134.277,5.117a3.746,3.746,0,0,0-1.371-.281q-1.781,0-1.781,1.934V8.047h2.742v2.73h-2.742v9.27h-3.691v-9.27h-2.016V8.047h2.016V6.559a4.319,4.319,0,0,1,1.336-3.3A5.092,5.092,0,0,1,132.4,2a6.389,6.389,0,0,1,1.875.234Z"/>
      <path class="cls-1" d="M137.523,6.148a2.163,2.163,0,0,1-1.535-.556,1.794,1.794,0,0,1-.6-1.365,1.732,1.732,0,0,1,.6-1.36,2.509,2.509,0,0,1,3.077,0,1.74,1.74,0,0,1,.591,1.36,1.786,1.786,0,0,1-.591,1.382A2.2,2.2,0,0,1,137.523,6.148Zm1.829,13.9h-3.7v-12h3.7Z"/>
      <path class="cls-1" d="M151.563,19.613a7.316,7.316,0,0,1-3.622.727,6.124,6.124,0,0,1-4.476-1.676,5.785,5.785,0,0,1-1.711-4.324,6.373,6.373,0,0,1,1.834-4.822,6.775,6.775,0,0,1,4.9-1.764,6.3,6.3,0,0,1,3.071.562v3.141a4.224,4.224,0,0,0-2.59-.867,3.41,3.41,0,0,0-2.526.932,3.475,3.475,0,0,0-.931,2.572,3.424,3.424,0,0,0,.89,2.5,3.275,3.275,0,0,0,2.449.908,4.891,4.891,0,0,0,2.708-.867Z"/>
      <path class="cls-1" d="M164.77,15.1h-7.829q.188,2.613,3.293,2.613a6.429,6.429,0,0,0,3.481-.938v2.672a9.142,9.142,0,0,1-4.324.891,6.087,6.087,0,0,1-4.512-1.611,6.092,6.092,0,0,1-1.606-4.495A6.422,6.422,0,0,1,155.008,9.5a5.777,5.777,0,0,1,4.265-1.746,5.242,5.242,0,0,1,4.061,1.559,6,6,0,0,1,1.436,4.23Zm-3.434-2.274q0-2.578-2.086-2.578a1.992,1.992,0,0,0-1.541.738,3.354,3.354,0,0,0-.791,1.84Z"/>
      <path class="cls-1" d="M44.62,32.412v3.555H43v-9.8h2.974a3.938,3.938,0,0,1,2.618.786,2.743,2.743,0,0,1,.93,2.215,3.061,3.061,0,0,1-.971,2.338,3.689,3.689,0,0,1-2.625.909Zm0-4.908v3.582h1.053a2.333,2.333,0,0,0,1.593-.485,1.737,1.737,0,0,0,.547-1.368q0-1.73-2.01-1.729Z"/>
      <path class="cls-1" d="M56.272,36.131a4.41,4.41,0,0,1-3.394-1.374A5.046,5.046,0,0,1,51.6,31.182a5.348,5.348,0,0,1,1.3-3.774A4.568,4.568,0,0,1,56.43,26a4.31,4.31,0,0,1,3.325,1.367,5.06,5.06,0,0,1,1.262,3.575,5.364,5.364,0,0,1-1.292,3.794A4.481,4.481,0,0,1,56.272,36.131Zm.076-8.7a2.727,2.727,0,0,0-2.191,1.005,3.973,3.973,0,0,0-.844,2.645,4.013,4.013,0,0,0,.82,2.632,2.647,2.647,0,0,0,2.146,1,2.77,2.77,0,0,0,2.222-.95,3.967,3.967,0,0,0,.814-2.659,4.146,4.146,0,0,0-.791-2.714A2.667,2.667,0,0,0,56.348,27.429Z"/>
      <path class="cls-1" d="M76.025,26.164l-2.686,9.8H71.5L69.634,29.11a4.77,4.77,0,0,1-.144-.957h-.027a4.639,4.639,0,0,1-.164.944l-1.873,6.87h-1.88l-2.741-9.8h1.784l1.777,7.178a5.2,5.2,0,0,1,.137.943h.034a5.373,5.373,0,0,1,.192-.943l2.009-7.178h1.675L72.272,33.4a5.635,5.635,0,0,1,.144.875h.027a5.445,5.445,0,0,1,.158-.9l1.743-7.2Z"/>
      <path class="cls-1" d="M83.94,35.967h-5.5v-9.8h5.285v1.381H80.064V30.32h3.37v1.374h-3.37v2.9H83.94Z"/>
      <path class="cls-1" d="M94.307,35.967h-1.9l-1.565-2.625a5.813,5.813,0,0,0-.414-.619,2.488,2.488,0,0,0-.41-.42,1.349,1.349,0,0,0-.454-.239,1.9,1.9,0,0,0-.554-.076h-.656v3.979H86.732v-9.8h3.227a4.678,4.678,0,0,1,1.271.164,2.962,2.962,0,0,1,1.012.5,2.3,2.3,0,0,1,.673.826,2.608,2.608,0,0,1,.243,1.16,2.883,2.883,0,0,1-.153.954,2.492,2.492,0,0,1-.438.771,2.661,2.661,0,0,1-.683.578,3.4,3.4,0,0,1-.9.369v.028a2.489,2.489,0,0,1,.465.332c.132.12.258.244.376.372a4.53,4.53,0,0,1,.352.434c.117.162.245.35.387.564Zm-5.954-8.484v3.186h1.353a2,2,0,0,0,.693-.116,1.587,1.587,0,0,0,.551-.335,1.52,1.52,0,0,0,.363-.533,1.843,1.843,0,0,0,.129-.7A1.4,1.4,0,0,0,91,27.88a1.856,1.856,0,0,0-1.278-.4Z"/>
      <path class="cls-1" d="M102,35.967H96.5v-9.8h5.284v1.381H98.125V30.32h3.37v1.374h-3.37v2.9H102Z"/>
      <path class="cls-1" d="M104.794,35.967v-9.8h2.83q5.421,0,5.421,4.778a4.711,4.711,0,0,1-1.5,3.648,5.741,5.741,0,0,1-4.033,1.377Zm1.62-8.422v7.048h1.3a3.636,3.636,0,0,0,2.67-.944,3.583,3.583,0,0,0,.953-2.666q0-3.438-3.562-3.438Z"/>
      <path class="cls-1" d="M120.785,35.967v-9.8H123.9a3.665,3.665,0,0,1,2.251.622,1.932,1.932,0,0,1,.832,1.62,2.32,2.32,0,0,1-.472,1.45,2.548,2.548,0,0,1-1.306.875v.027a2.552,2.552,0,0,1,1.616.748,2.275,2.275,0,0,1,.606,1.644,2.47,2.47,0,0,1-.991,2.038,3.93,3.93,0,0,1-2.5.779Zm1.62-8.5v2.789h1.053a2.028,2.028,0,0,0,1.33-.4,1.392,1.392,0,0,0,.482-1.131q0-1.259-1.682-1.258Zm0,4.1v3.1h1.388a2.119,2.119,0,0,0,1.4-.42,1.441,1.441,0,0,0,.5-1.159q0-1.525-2.112-1.524Z"/>
      <path class="cls-1" d="M136.717,26.164,133.5,32.405v3.562h-1.627V32.44l-3.131-6.276H130.6l1.927,4.2q.034.075.2.568h.021a3.839,3.839,0,0,1,.226-.568l2.016-4.2Z"/>
      <path class="cls-1" d="M150.752,35.557a5.938,5.938,0,0,1-2.755.574,4.5,4.5,0,0,1-3.418-1.347,4.909,4.909,0,0,1-1.285-3.534,5.15,5.15,0,0,1,1.445-3.8A4.951,4.951,0,0,1,148.394,26a6,6,0,0,1,2.358.4v1.614a4.208,4.208,0,0,0-2.187-.588,3.442,3.442,0,0,0-2.582,1.018A3.744,3.744,0,0,0,145,31.168a3.567,3.567,0,0,0,.923,2.58,3.209,3.209,0,0,0,2.427.961,4.348,4.348,0,0,0,2.406-.656Z"/>
      <path class="cls-1" d="M155.329,35.967h-1.675v-9.8h1.675Z"/>
      <path class="cls-1" d="M158.793,35.967v-9.8h3.11a3.667,3.667,0,0,1,2.252.622,1.931,1.931,0,0,1,.831,1.62,2.32,2.32,0,0,1-.471,1.45,2.548,2.548,0,0,1-1.306.875v.027a2.552,2.552,0,0,1,1.616.748,2.279,2.279,0,0,1,.606,1.644,2.47,2.47,0,0,1-.991,2.038,3.932,3.932,0,0,1-2.5.779Zm1.62-8.5v2.789h1.053a2.028,2.028,0,0,0,1.33-.4,1.392,1.392,0,0,0,.481-1.131q0-1.259-1.681-1.258Zm0,4.1v3.1H161.8a2.119,2.119,0,0,0,1.405-.42,1.441,1.441,0,0,0,.5-1.159q0-1.525-2.112-1.524Z"/>
    </g>
    <rect class="cls-1" width="37" height="37"/>
    <g>
      <path id="path6084" class="cls-2" d="M23.59,4.5a.7.7,0,0,0-.643.409.68.68,0,0,0,.149.74l5.814,5.833a.7.7,0,0,0,.74.151.688.688,0,0,0,.425-.617V5.172a.7.7,0,0,0-.682-.672Z"/>
      <path id="path6088" class="cls-2" d="M7.6,4.5a.689.689,0,0,0-.679.69V31.81a.688.688,0,0,0,.679.69L22.9,32.492c2.249.008,7.18-4.832,7.18-7.278V14.668a.691.691,0,0,0-.2-.49L20.452,4.711a.689.689,0,0,0-.489-.211Zm.689,1.379H19.674L28.7,14.946s0,9.218,0,9.809c0,1.835-4.229,6.366-6.45,6.366H8.293Z"/>
    </g>
  </g>
</svg>
